<?xml version="1.0" encoding="utf-8"?>
<!-- Generator: Adobe Illustrator 26.1.0, SVG Export Plug-In . SVG Version: 6.00 Build 0)  -->
<svg version="1.1" id="Layer_1" xmlns="http://www.w3.org/2000/svg" xmlns:xlink="http://www.w3.org/1999/xlink" x="0px" y="0px"
	 viewBox="0 0 1953.2 654.5" style="enable-background:new 0 0 1953.2 654.5;" xml:space="preserve">
<style type="text/css">
	.st0{fill:#1434CB;}
</style>
<path class="st0" d="M743,24.2L491.6,623.9h-164L203.9,145.4c-7.5-29.5-14-40.3-36.9-52.7c-37.3-20.2-98.9-39.2-153-51l3.7-17.4h264
	c33.6,0,63.9,22.4,71.5,61.2l65.3,347L580,24.3L743,24.2L743,24.2z M1385.5,428.2c0.7-158.3-218.9-167-217.4-237.7
	c0.5-21.5,21-44.4,65.8-50.2c22.2-2.9,83.5-5.1,153,26.8l27.2-127.2c-37.3-13.5-85.4-26.6-145.1-26.6
	c-153.4,0-261.3,81.5-262.2,198.3c-1,86.3,77,134.5,135.8,163.2c60.5,29.4,80.8,48.3,80.5,74.5c-0.4,40.2-48.2,58-92.9,58.7
	c-78,1.2-123.2-21.1-159.3-37.9l-28.1,131.4c36.2,16.6,103.2,31.1,172.5,31.9C1278.4,633.4,1385,552.9,1385.5,428.2 M1790.5,624
	H1934L1808.7,24.2h-132.4c-29.8,0-54.9,17.3-66,44l-232.8,555.7h162.9l32.4-89.6h199L1790.5,624z M1617.4,411.5l81.7-225.2l47,225.2
	H1617.4z M964.6,24.2L836.3,623.9H681.2L809.5,24.2H964.6z"/>
</svg>
